<mxfile host="app.diagrams.net" agent="Mozilla/5.0 (Windows NT 10.0; Win64; x64) AppleWebKit/537.36 (KHTML, like Gecko) Chrome/133.0.0.0 Safari/537.36" version="26.0.16">
  <diagram name="Page-1" id="KfC9kl-5bHf2K3Jede0V">
    <mxGraphModel dx="2109" dy="655" grid="1" gridSize="10" guides="1" tooltips="1" connect="1" arrows="1" fold="1" page="1" pageScale="1" pageWidth="850" pageHeight="1100" math="0" shadow="0">
      <root>
        <mxCell id="0" />
        <mxCell id="1" parent="0" />
        <mxCell id="XQs2JFFZKrAv-RZRc1Ty-2" style="edgeStyle=orthogonalEdgeStyle;rounded=0;orthogonalLoop=1;jettySize=auto;html=1;" edge="1" parent="1" source="XQs2JFFZKrAv-RZRc1Ty-1" target="XQs2JFFZKrAv-RZRc1Ty-3">
          <mxGeometry relative="1" as="geometry">
            <mxPoint x="80" y="390" as="targetPoint" />
          </mxGeometry>
        </mxCell>
        <mxCell id="XQs2JFFZKrAv-RZRc1Ty-1" value="&lt;b&gt;FROM node:20&lt;/b&gt;" style="rounded=0;whiteSpace=wrap;html=1;fillColor=#dae8fc;strokeColor=#6c8ebf;" vertex="1" parent="1">
          <mxGeometry x="-160" y="360" width="190" height="60" as="geometry" />
        </mxCell>
        <mxCell id="XQs2JFFZKrAv-RZRc1Ty-5" style="edgeStyle=orthogonalEdgeStyle;rounded=0;orthogonalLoop=1;jettySize=auto;html=1;" edge="1" parent="1" source="XQs2JFFZKrAv-RZRc1Ty-3" target="XQs2JFFZKrAv-RZRc1Ty-4">
          <mxGeometry relative="1" as="geometry" />
        </mxCell>
        <mxCell id="XQs2JFFZKrAv-RZRc1Ty-7" style="edgeStyle=orthogonalEdgeStyle;rounded=0;orthogonalLoop=1;jettySize=auto;html=1;entryX=0;entryY=0.5;entryDx=0;entryDy=0;" edge="1" parent="1" source="XQs2JFFZKrAv-RZRc1Ty-3">
          <mxGeometry relative="1" as="geometry">
            <mxPoint x="220" y="390" as="targetPoint" />
          </mxGeometry>
        </mxCell>
        <mxCell id="XQs2JFFZKrAv-RZRc1Ty-3" value="" style="image;sketch=0;aspect=fixed;html=1;points=[];align=center;fontSize=12;image=img/lib/mscae/Docker.svg;" vertex="1" parent="1">
          <mxGeometry x="90" y="369.5" width="50" height="41" as="geometry" />
        </mxCell>
        <mxCell id="XQs2JFFZKrAv-RZRc1Ty-4" value="&lt;div style=&quot;color: rgb(204, 204, 204); background-color: rgb(31, 31, 31); font-family: Consolas, &amp;quot;Courier New&amp;quot;, monospace; font-size: 14px; line-height: 19px; white-space: pre;&quot;&gt;&lt;span style=&quot;color: #569cd6;&quot;&gt;RUN&lt;/span&gt; addgroup -S expense&lt;br/&gt; &amp;amp;&amp;amp; adduser -S expense&lt;br/&gt; -G expense&lt;/div&gt;" style="rounded=0;whiteSpace=wrap;html=1;fillColor=#dae8fc;strokeColor=#6c8ebf;" vertex="1" parent="1">
          <mxGeometry x="20" y="270" width="190" height="60" as="geometry" />
        </mxCell>
        <mxCell id="XQs2JFFZKrAv-RZRc1Ty-12" style="edgeStyle=orthogonalEdgeStyle;rounded=0;orthogonalLoop=1;jettySize=auto;html=1;" edge="1" parent="1" source="XQs2JFFZKrAv-RZRc1Ty-8" target="XQs2JFFZKrAv-RZRc1Ty-11">
          <mxGeometry relative="1" as="geometry" />
        </mxCell>
        <mxCell id="XQs2JFFZKrAv-RZRc1Ty-8" value="" style="shape=image;html=1;verticalAlign=top;verticalLabelPosition=bottom;labelBackgroundColor=#ffffff;imageAspect=0;aspect=fixed;image=https://cdn1.iconfinder.com/data/icons/unicons-line-vol-3/24/docker-128.png" vertex="1" parent="1">
          <mxGeometry x="210" y="345" width="90" height="90" as="geometry" />
        </mxCell>
        <mxCell id="XQs2JFFZKrAv-RZRc1Ty-9" value="&lt;b&gt;Intermediate &lt;br&gt;Container&lt;/b&gt;" style="text;html=1;align=center;verticalAlign=middle;resizable=0;points=[];autosize=1;strokeColor=none;fillColor=none;" vertex="1" parent="1">
          <mxGeometry x="70" y="420" width="90" height="40" as="geometry" />
        </mxCell>
        <mxCell id="XQs2JFFZKrAv-RZRc1Ty-10" value="&lt;b&gt;Intermediate &lt;br&gt;Image&lt;/b&gt;" style="text;html=1;align=center;verticalAlign=middle;resizable=0;points=[];autosize=1;strokeColor=none;fillColor=none;" vertex="1" parent="1">
          <mxGeometry x="200" y="420" width="90" height="40" as="geometry" />
        </mxCell>
        <mxCell id="XQs2JFFZKrAv-RZRc1Ty-14" style="edgeStyle=orthogonalEdgeStyle;rounded=0;orthogonalLoop=1;jettySize=auto;html=1;entryX=0.5;entryY=1;entryDx=0;entryDy=0;" edge="1" parent="1" source="XQs2JFFZKrAv-RZRc1Ty-11" target="XQs2JFFZKrAv-RZRc1Ty-13">
          <mxGeometry relative="1" as="geometry" />
        </mxCell>
        <mxCell id="XQs2JFFZKrAv-RZRc1Ty-11" value="" style="image;sketch=0;aspect=fixed;html=1;points=[];align=center;fontSize=12;image=img/lib/mscae/Docker.svg;" vertex="1" parent="1">
          <mxGeometry x="360" y="369.5" width="50" height="41" as="geometry" />
        </mxCell>
        <mxCell id="XQs2JFFZKrAv-RZRc1Ty-13" value="&lt;div style=&quot;color: rgb(204, 204, 204); background-color: rgb(31, 31, 31); font-family: Consolas, &amp;quot;Courier New&amp;quot;, monospace; font-size: 14px; line-height: 19px; white-space: pre;&quot;&gt;&lt;div style=&quot;line-height: 19px;&quot;&gt;&lt;span style=&quot;color: #569cd6;&quot;&gt;RUN&lt;/span&gt; mkdir /opt/backend&lt;/div&gt;&lt;/div&gt;" style="rounded=0;whiteSpace=wrap;html=1;fillColor=#dae8fc;strokeColor=#6c8ebf;" vertex="1" parent="1">
          <mxGeometry x="290" y="270" width="190" height="60" as="geometry" />
        </mxCell>
        <mxCell id="XQs2JFFZKrAv-RZRc1Ty-15" value="&lt;b&gt;Intermediate &lt;br&gt;Container&lt;/b&gt;" style="text;html=1;align=center;verticalAlign=middle;resizable=0;points=[];autosize=1;strokeColor=none;fillColor=none;" vertex="1" parent="1">
          <mxGeometry x="335" y="420" width="90" height="40" as="geometry" />
        </mxCell>
      </root>
    </mxGraphModel>
  </diagram>
</mxfile>
